<svg xmlns="http://www.w3.org/2000/svg" viewBox="0 0 48 48" width="48" height="48"><path fill="#EA4335" d="M24 9.5c3.9 0 7 1.4 9.2 2.9l7-6.8C36.5 4 30.6 2 24 2 14.7 2 6.8 6.9 2.9 14.2l8.3 6.4C13.2 14.6 18.3 9.5 24 9.5z"/><path fill="#34A853" d="M46.1 24c0-1.6-.2-3.1-.6-4.6H24v8.6h12.5c-.5 2.8-2 5.1-4.3 6.6l6.8 5.4C43.9 36.6 46.1 30.8 46.1 24z"/><path fill="#4A90E2" d="M9.8 28.6c-.6-1.8-1-3.6-1-5.6s.4-3.8 1-5.6L1.5 11.2C.5 13.9 0 16.9 0 20c0 3.1.5 6.1 1.5 8.8l8.3-6.2z"/><path fill="#FBBC05" d="M24 46c6.6 0 12.5-2 16.8-5.5l-7.9-6.3c-2.1 1.4-5 2.4-8.9 2.4-5.8 0-10.9-4.9-12.6-11.4l-8.3 6.2C6.8 41.1 14.7 46 24 46z"/></svg>

